<?xml version="1.0" standalone="no"?>
<!DOCTYPE svg PUBLIC "-//W3C//DTD SVG 20010904//EN"
 "http://www.w3.org/TR/2001/REC-SVG-20010904/DTD/svg10.dtd">
<svg version="1.0" xmlns="http://www.w3.org/2000/svg"
 width="1125.000000pt" height="1125.000000pt" viewBox="0 0 1125.000000 1125.000000"
 preserveAspectRatio="xMidYMid meet">
<metadata>
Created by potrace 1.14, written by Peter Selinger 2001-2017
</metadata>
<g transform="translate(0.000000,1125.000000) scale(0.100000,-0.100000)"
fill="#000000" stroke="none">
<path d="M5455 10708 c-44 -17 -89 -34 -100 -38 -31 -12 -59 -23 -67 -25 -5
-2 -10 -4 -13 -5 -3 -1 -8 -3 -12 -5 -15 -4 -48 -17 -81 -31 -18 -8 -38 -14
-45 -14 -7 0 -32 -11 -57 -24 -25 -13 -49 -25 -55 -26 -57 -13 -379 -180 -405
-210 -3 -3 -19 -16 -37 -28 l-32 -22 2 45 c1 25 4 45 7 45 11 0 5 106 -7 118
-27 29 -74 9 -148 -63 -48 -46 -176 -164 -199 -182 -8 -7 -33 -22 -56 -34 -34
-18 -49 -20 -98 -13 -82 11 -144 8 -210 -11 -31 -9 -57 -16 -57 -14 0 1 -31
-17 -70 -41 -99 -61 -196 -165 -245 -263 -22 -43 -40 -85 -40 -93 0 -11 -27
-12 -142 -8 -268 9 -338 8 -338 -6 0 -3 -12 -11 -28 -17 -15 -7 -46 -30 -70
-50 -23 -21 -50 -45 -61 -53 -90 -72 -308 -280 -586 -558 -248 -248 -275 -285
-310 -422 -1 -3 -5 -14 -9 -25 -4 -11 -13 -33 -19 -48 -14 -39 -77 -134 -117
-177 -90 -97 -131 -140 -135 -140 -2 0 -32 -28 -68 -62 -36 -35 -98 -93 -139
-130 -129 -116 -215 -205 -293 -303 -22 -27 -43 -51 -47 -53 -5 -2 -8 -8 -8
-13 0 -5 -16 -32 -35 -59 -19 -28 -32 -50 -28 -50 5 0 3 -4 -2 -8 -15 -10 -78
-132 -68 -132 4 0 3 -4 -3 -8 -7 -4 -19 -27 -27 -52 -9 -25 -23 -62 -31 -82
-9 -21 -17 -41 -17 -45 -2 -14 -6 -28 -17 -63 -15 -49 -33 -120 -39 -150 -2
-14 -8 -41 -13 -60 -5 -19 -12 -55 -15 -80 -4 -24 -8 -47 -10 -50 -2 -3 -6
-26 -9 -50 -4 -25 -9 -56 -11 -70 -12 -58 -14 -69 -20 -121 -3 -30 -8 -61 -10
-69 -2 -8 -7 -37 -10 -65 -3 -27 -7 -61 -10 -75 -5 -29 -12 -68 -20 -125 -4
-22 -15 -88 -25 -146 l-19 -106 97 -194 c54 -107 105 -212 114 -234 9 -22 25
-60 36 -85 42 -101 122 -349 138 -430 2 -14 7 -32 10 -40 5 -14 18 -78 31
-160 20 -120 2 -154 -78 -147 l-46 3 3 -150 c2 -83 6 -162 9 -176 3 -14 8 -35
11 -48 5 -23 35 -104 58 -157 8 -16 26 -59 41 -95 28 -66 51 -118 99 -223 14
-32 26 -59 26 -61 0 -2 14 -34 32 -72 17 -38 32 -72 32 -76 1 -4 6 -12 13 -19
6 -6 9 -18 6 -25 -3 -8 0 -14 6 -14 6 0 11 -4 11 -10 0 -5 12 -35 26 -67 15
-32 28 -62 30 -68 1 -5 29 -71 62 -145 57 -131 74 -170 77 -180 1 -3 6 -16 12
-30 6 -14 21 -50 33 -80 25 -66 39 -99 51 -122 5 -10 9 -25 9 -33 0 -8 4 -23
10 -33 9 -16 69 -182 75 -206 1 -6 6 -26 10 -44 4 -19 13 -35 19 -37 6 -2 25
-6 41 -10 17 -4 50 -28 77 -55 43 -45 57 -74 72 -150 5 -28 22 -104 29 -136
32 -134 121 -330 182 -401 5 -6 27 -32 49 -57 69 -83 210 -170 324 -201 26 -6
119 -13 207 -14 88 -1 185 -6 215 -12 64 -13 144 -49 182 -81 14 -13 39 -32
54 -43 15 -11 32 -25 38 -30 16 -15 164 -81 221 -98 74 -22 130 -30 225 -32
82 -1 89 -3 180 -52 52 -28 166 -87 252 -131 211 -109 292 -154 296 -164 2 -4
8 -6 13 -2 5 3 9 0 9 -5 0 -6 5 -11 10 -11 10 0 120 -69 130 -81 9 -11 54 -23
75 -20 11 2 30 12 41 23 l22 19 10 -31 c6 -17 8 -29 4 -26 -11 6 -8 -88 3 -96
5 -4 14 -4 19 -1 5 4 28 8 50 9 42 3 99 9 165 19 20 2 65 7 101 10 36 3 81 8
100 10 142 16 436 21 590 11 170 -12 221 -18 380 -52 14 -2 32 -6 40 -7 9 -2
20 -6 25 -9 26 -15 88 -17 141 -5 70 17 217 14 249 -4 6 -3 31 -12 58 -19 26
-7 47 -17 47 -21 0 -5 4 -8 8 -7 8 3 101 -41 112 -52 13 -13 95 -53 119 -56
33 -6 81 -5 104 2 19 6 25 68 7 79 -14 9 7 35 26 35 8 0 14 5 14 10 0 6 3 9 8
8 6 -2 63 14 102 29 17 7 17 7 90 22 69 14 97 20 135 27 16 3 31 7 33 9 2 2
17 -1 32 -7 28 -9 73 -54 115 -112 19 -26 91 -76 111 -76 6 0 9 30 9 67 -2 93
13 151 48 177 26 19 41 21 148 20 106 -2 118 0 110 14 -5 9 -5 26 0 39 5 13 5
23 0 23 -12 0 -4 96 11 123 6 12 32 43 57 68 25 25 87 90 136 144 97 106 102
112 161 166 45 41 128 99 142 99 8 0 137 -136 154 -163 6 -9 8 -8 9 3 9 84
-28 172 -105 253 -31 33 -56 64 -56 71 0 7 10 18 23 24 55 29 218 73 246 67
48 -10 71 -18 71 -27 0 -5 5 -6 10 -3 6 3 10 2 10 -2 0 -5 8 -13 19 -20 17
-11 16 -7 -4 31 -19 36 -21 47 -11 67 19 40 81 63 171 65 44 0 94 4 111 8 55
12 126 108 118 160 -2 11 0 25 4 30 3 6 5 20 4 31 -2 11 5 29 15 40 10 11 50
58 88 105 38 47 78 94 88 105 11 11 51 63 90 115 38 52 77 101 86 107 8 7 12
13 8 13 -4 0 10 24 31 52 41 57 125 188 163 253 70 123 109 196 109 205 0 6 5
10 10 10 6 0 10 4 10 9 0 5 34 78 75 164 41 85 75 157 75 160 0 3 13 34 29 69
25 56 41 92 46 108 1 3 5 14 10 25 40 97 65 168 61 172 -9 9 -150 -113 -211
-182 -33 -37 -65 -73 -72 -80 -6 -7 -33 -45 -59 -86 -52 -80 -57 -87 -93 -111
-24 -17 -65 -15 -89 4 -19 17 -30 -4 -58 -107 -11 -39 -16 -62 -16 -72 -1 -7
-4 -10 -8 -8 -7 4 -4 101 4 138 2 9 2 17 -1 17 -5 0 -163 -121 -198 -152 -11
-9 -65 -51 -120 -93 -55 -41 -149 -114 -210 -161 -60 -47 -126 -95 -145 -108
-19 -13 -41 -31 -49 -40 -7 -9 -20 -16 -27 -16 -8 0 -14 -4 -14 -10 0 -5 -5
-10 -11 -10 -6 0 -16 -6 -23 -13 -7 -6 -25 -21 -41 -32 -15 -11 -39 -30 -53
-43 -14 -12 -28 -22 -33 -22 -4 0 -14 -6 -21 -13 -7 -7 -51 -40 -97 -73 -46
-32 -107 -76 -135 -97 -28 -20 -58 -40 -66 -44 -8 -4 -17 -9 -20 -13 -8 -10
-154 -110 -355 -244 -104 -69 -196 -131 -203 -137 -8 -6 -43 -27 -80 -46 -52
-27 -74 -33 -106 -30 -65 7 -80 15 -104 58 -12 21 -27 39 -32 39 -5 0 -23 -12
-39 -28 -73 -68 -91 -80 -129 -88 -22 -4 -45 43 -40 84 l5 37 -83 -1 c-78 0
-85 -2 -109 -28 -14 -15 -23 -31 -20 -36 3 -4 -3 -18 -14 -31 l-18 -23 -27 42
c-28 44 -46 54 -47 25 0 -20 -6 -57 -13 -88 -2 -11 -5 -31 -6 -45 -2 -23 -2
-23 -11 6 -17 58 -44 50 -101 -27 -18 -24 -18 -24 -33 -4 -8 11 -19 25 -25 32
-5 7 -10 17 -10 23 0 5 -5 10 -11 10 -5 0 -8 3 -6 8 2 4 -18 30 -45 57 l-48
50 15 -38 c18 -43 27 -124 16 -132 -5 -2 -17 5 -29 15 -27 25 -28 25 -29 -2
-6 -99 -9 -108 -33 -125 -14 -9 -53 -43 -88 -75 -34 -32 -73 -58 -85 -59 -12
-1 -33 -2 -47 -4 -14 -1 -59 -6 -100 -9 -77 -7 -125 -13 -125 -16 0 -1 -20 -3
-45 -6 -46 -4 -85 -11 -85 -14 0 -1 -11 -3 -25 -5 -24 -3 -105 -21 -145 -33
-32 -9 -106 -6 -155 7 -25 7 -54 13 -65 15 -11 2 -47 11 -80 19 -33 8 -78 18
-100 22 -71 12 -89 16 -160 30 -66 14 -94 19 -172 30 -18 3 -48 7 -65 10 -18
3 -55 8 -83 11 -27 3 -63 7 -80 9 -59 9 -220 25 -301 30 -163 10 -295 36 -445
85 -117 39 -280 111 -311 138 -10 8 -18 11 -18 7 0 -4 -8 -1 -17 7 -10 8 -40
27 -66 42 l-48 28 45 28 c50 32 67 58 73 111 5 44 -9 57 -27 24 -12 -23 -69
-53 -120 -61 -14 -3 -40 -9 -57 -14 -24 -6 -33 -5 -33 3 0 8 -3 7 -9 -2 -5 -7
-13 -12 -19 -10 -6 2 -73 65 -150 139 -76 74 -183 176 -236 225 -54 50 -124
115 -156 145 -32 30 -105 98 -161 150 -197 181 -275 256 -514 495 -233 233
-295 298 -400 419 -27 32 -58 68 -68 79 -9 11 -17 24 -17 28 0 4 -6 14 -13 21
-19 19 -77 125 -71 130 2 3 -2 11 -11 18 -8 7 -15 18 -15 25 0 6 -6 25 -14 41
-34 70 -60 130 -62 144 -2 8 -8 24 -13 37 -17 36 -28 62 -64 153 -19 47 -47
113 -62 147 -26 59 -29 61 -44 44 -48 -53 -89 -43 -125 33 -36 75 -37 110 -6
144 26 27 67 28 95 2 l22 -20 -13 77 c-6 43 -14 101 -17 129 -2 29 -7 56 -10
60 -3 5 -8 38 -11 74 -4 36 -9 74 -11 85 -2 11 -7 43 -11 70 -11 89 -14 105
-19 133 -14 75 -16 160 -5 202 11 41 77 189 89 200 3 3 8 12 10 20 2 8 9 35
16 60 12 43 21 112 31 230 2 30 7 71 10 90 3 19 7 54 9 77 1 23 6 68 10 100 4
32 9 74 11 93 1 19 5 53 8 75 5 36 11 89 21 195 2 19 4 35 5 35 0 0 3 23 5 50
3 28 7 68 10 91 3 22 7 65 10 95 10 103 17 146 42 269 9 46 10 50 13 53 2 2 5
15 13 57 3 14 10 37 16 53 6 15 9 27 6 27 -2 0 3 17 11 37 9 20 18 45 20 55 2
10 6 26 8 36 17 72 156 363 231 485 30 48 55 90 55 93 0 3 11 17 25 32 14 15
25 30 25 34 0 4 6 16 14 25 8 10 38 50 67 88 29 39 55 72 58 75 3 3 26 30 51
60 88 108 352 377 499 510 39 36 96 88 125 115 174 162 245 227 281 254 22 17
45 34 50 39 11 8 95 58 250 147 55 32 116 68 135 80 19 13 91 56 160 96 69 40
128 77 132 83 4 6 8 7 8 3 0 -4 20 6 45 23 25 17 45 27 45 23 0 -4 4 -3 8 2 4
6 27 21 52 34 25 13 53 31 63 39 9 8 17 13 17 9 0 -3 61 26 135 64 74 38 139
69 143 70 4 0 23 8 42 16 140 60 356 128 505 159 11 2 31 6 45 9 14 3 41 7 60
10 19 3 59 9 87 14 29 4 69 8 88 7 19 -1 35 2 35 5 0 4 120 6 268 7 170 0 282
4 310 11 99 27 140 106 136 267 -1 55 -3 102 -3 106 -1 4 -13 3 -28 -1 -35
-10 -103 -2 -103 12 0 6 -3 7 -6 4 -6 -6 -23 5 -102 71 -18 15 -38 32 -45 37
-21 18 -111 55 -130 54 -7 0 -48 -14 -92 -31z m-4010 -6476 c13 -9 67 -92 69
-106 1 -6 8 -21 14 -33 7 -13 9 -23 5 -23 -4 0 -3 -4 3 -8 5 -4 21 -34 34 -67
13 -33 36 -79 51 -102 16 -24 26 -43 23 -43 -8 0 -77 38 -95 52 -27 22 -48 63
-53 101 -9 69 -18 107 -27 113 -5 3 -9 12 -9 20 0 8 -11 32 -25 52 -14 20 -25
40 -25 44 0 10 22 10 35 0z m-106 -60 c7 -26 19 -64 27 -84 8 -21 11 -38 8
-38 -4 0 -1 -7 6 -15 7 -9 8 -15 2 -15 -5 0 -18 12 -28 28 -9 15 -35 48 -56
73 -43 52 -47 72 -17 93 30 21 43 12 58 -42z"/>
<path d="M7187 10414 c-2 -2 -50 -4 -109 -5 -127 -2 -158 -14 -201 -79 l-31
-46 -40 14 c-64 22 -272 16 -332 -10 -79 -34 -125 -103 -126 -192 0 -59 29
-120 86 -177 45 -45 181 -141 188 -133 3 2 11 -2 18 -11 7 -8 18 -15 25 -15 7
0 30 -8 51 -17 22 -9 42 -18 47 -19 4 -1 8 -2 10 -4 1 -1 9 -3 17 -5 8 -1 33
-7 55 -13 22 -6 59 -13 83 -16 23 -3 61 -9 85 -12 23 -3 67 -7 97 -8 49 -2 70
-11 195 -85 77 -46 154 -91 170 -100 17 -9 34 -22 38 -28 4 -7 13 -13 19 -13
6 0 36 -16 67 -37 211 -138 311 -205 499 -338 118 -82 221 -154 230 -160 10
-5 19 -12 22 -15 3 -3 30 -23 60 -44 30 -22 57 -43 58 -48 2 -4 8 -8 14 -8 6
0 24 -11 42 -25 39 -32 38 -31 116 -85 36 -24 73 -52 83 -61 9 -9 29 -22 44
-30 15 -8 34 -20 43 -27 47 -39 79 -62 89 -62 6 0 11 -4 11 -8 0 -4 24 -23 54
-41 45 -27 63 -32 103 -30 53 4 107 19 125 37 7 7 20 12 30 12 10 0 18 4 18 8
0 7 62 34 75 33 3 -1 7 -52 9 -113 3 -109 34 -269 57 -292 5 -6 9 -18 9 -28 0
-10 4 -26 9 -36 5 -9 13 -28 19 -42 5 -14 17 -41 25 -60 9 -19 19 -47 22 -62
4 -16 11 -28 15 -28 5 0 12 -9 15 -20 9 -28 79 -98 140 -140 59 -41 145 -125
162 -160 13 -25 32 -72 41 -100 13 -40 10 -219 -4 -271 -29 -100 -29 -100 25
-207 54 -106 150 -258 198 -313 55 -65 153 -159 164 -159 14 0 49 -38 50 -54
0 -6 1 -31 1 -56 0 -54 24 -107 52 -114 22 -6 60 15 88 48 17 20 17 19 12 -29
-2 -27 -7 -66 -10 -85 -3 -19 -7 -57 -10 -85 -2 -27 -7 -79 -11 -115 -7 -81
-8 -285 0 -325 17 -87 27 -108 28 -59 0 16 2 45 4 64 2 19 6 62 9 95 3 33 8
83 12 110 3 28 8 64 10 80 12 104 20 160 24 160 1 0 4 14 5 30 2 17 6 41 10
55 3 14 9 39 11 55 8 40 53 216 61 235 8 19 8 19 18 55 4 17 14 42 22 58 12
25 12 27 -5 27 -22 0 -59 -38 -96 -97 -23 -38 -85 -85 -87 -66 0 5 -3 94 -5
198 -4 181 -10 300 -14 300 -1 0 -3 23 -5 52 -2 28 -6 75 -9 102 -3 28 -8 75
-11 104 -3 28 -8 68 -11 87 -3 19 -7 53 -10 75 -2 22 -6 54 -9 70 -3 17 -7 53
-10 80 -3 28 -8 66 -11 85 -3 19 -7 51 -9 71 -10 101 -16 132 -34 157 -33 47
-385 615 -400 644 -7 16 -17 28 -22 28 -5 0 -9 4 -9 10 0 5 -35 65 -77 132
-43 68 -84 136 -92 151 -8 15 -18 27 -23 27 -4 0 -8 5 -8 11 0 6 -13 30 -30
54 -16 24 -30 46 -30 49 0 2 -21 37 -48 78 -26 40 -54 85 -61 101 -8 15 -18
27 -23 27 -4 0 -8 5 -8 10 0 10 -14 34 -117 192 -23 37 -43 71 -43 76 0 4 -8
15 -17 23 -10 9 -37 38 -59 65 -59 69 -145 154 -156 154 -5 0 -6 5 -3 10 3 6
3 10 -2 10 -4 0 -24 15 -44 33 -39 34 -75 64 -154 125 -70 55 -232 162 -245
162 -5 0 -10 5 -10 10 0 6 -6 10 -14 10 -7 0 -19 7 -26 15 -7 9 -15 13 -18 11
-3 -3 -17 3 -31 13 -23 16 -218 114 -231 116 -3 1 -23 9 -45 20 -22 10 -47 19
-55 21 -8 2 -23 7 -35 13 -19 9 -114 45 -125 47 -3 0 -12 4 -20 7 -8 3 -69 22
-135 41 -111 32 -166 44 -285 62 -42 6 -388 13 -393 8z"/>
<path d="M7228 7625 c-2 -2 -25 -6 -53 -9 -27 -3 -68 -8 -90 -12 -49 -7 -226
-53 -240 -62 -5 -4 -15 -7 -22 -8 -20 -3 -167 -77 -210 -106 -23 -15 -44 -28
-46 -28 -20 0 -182 -161 -222 -220 -16 -25 -32 -47 -35 -50 -3 -3 -14 -23 -25
-45 -11 -22 -22 -42 -25 -45 -6 -6 -50 -130 -55 -156 -2 -11 -4 -19 -5 -19 -1
0 -4 -11 -6 -25 -1 -14 -6 -43 -10 -65 -9 -50 -9 -291 0 -325 4 -14 9 -37 11
-53 7 -45 38 -140 55 -167 9 -14 22 -38 30 -55 8 -16 17 -32 20 -35 4 -3 22
-27 41 -54 33 -48 113 -131 165 -171 14 -11 31 -25 37 -30 70 -61 397 -230
482 -248 6 -2 15 -5 20 -9 10 -6 274 -111 285 -113 3 -1 22 -9 44 -18 21 -9
40 -17 42 -17 2 0 27 -11 56 -24 29 -13 64 -27 78 -31 37 -11 234 -108 238
-117 2 -4 8 -8 14 -8 5 0 31 -15 56 -32 26 -18 53 -37 61 -43 48 -33 177 -176
211 -233 61 -103 80 -190 75 -347 -4 -181 -43 -305 -138 -445 -42 -62 -150
-167 -213 -207 -41 -27 -119 -67 -126 -65 -5 1 -8 -3 -8 -8 0 -6 -8 -10 -18
-10 -10 0 -22 -3 -26 -7 -3 -4 -12 -8 -19 -9 -7 -1 -25 -8 -42 -14 -16 -7 -41
-14 -55 -16 -14 -2 -46 -8 -73 -15 -26 -6 -66 -12 -90 -14 -49 -3 -190 -7
-197 -5 -8 2 -88 10 -147 14 -29 2 -56 7 -60 9 -5 3 -28 8 -53 12 -63 9 -122
29 -215 71 -22 10 -42 19 -45 19 -6 1 -66 38 -100 62 -32 22 -170 159 -170
168 0 4 -9 19 -20 35 -11 15 -21 36 -23 46 -2 11 -7 26 -10 34 -14 35 -26 99
-28 148 -3 52 -3 53 -33 50 l-30 -3 0 -328 c-1 -181 2 -330 5 -332 3 -2 28 -7
55 -10 42 -6 97 -19 259 -65 17 -5 86 -25 155 -45 201 -58 239 -67 350 -81 66
-9 352 -15 370 -8 8 3 38 7 65 9 100 7 304 52 380 85 24 10 46 16 49 13 3 -4
6 -1 6 5 0 7 6 12 14 12 17 0 139 62 144 73 2 4 8 7 12 7 5 0 25 11 44 23 127
87 221 187 313 333 23 36 73 144 73 157 0 7 5 18 12 25 7 7 9 12 5 12 -3 0 -2
12 4 28 6 15 12 42 15 59 2 18 8 51 13 74 5 22 8 109 7 192 -2 120 -7 171 -25
242 -27 105 -88 239 -138 305 -63 83 -139 162 -206 215 -45 36 -87 70 -94 75
-7 6 -17 10 -23 10 -5 0 -10 5 -10 12 0 6 -3 8 -7 5 -3 -4 -13 -1 -22 6 -15
13 -196 112 -196 108 0 -4 -60 20 -112 45 -28 13 -57 24 -63 24 -5 0 -18 4
-28 10 -28 16 -134 60 -144 60 -6 0 -24 6 -41 14 -18 8 -97 40 -177 71 -182
70 -354 154 -445 215 -74 50 -195 157 -195 172 0 5 -8 18 -19 29 -19 21 -51
82 -70 134 -31 85 -33 247 -5 365 3 14 7 33 8 42 1 10 5 21 9 24 4 4 7 14 7
21 0 19 63 152 86 182 45 58 118 131 157 157 23 16 45 33 49 39 5 7 8 7 8 0 0
-6 3 -6 8 0 9 14 115 65 133 65 8 0 20 5 27 12 7 7 12 9 12 6 0 -3 28 0 63 8
64 13 399 13 482 -1 135 -22 231 -43 250 -54 6 -3 15 -6 21 -7 37 -6 148 -71
188 -110 73 -71 127 -200 130 -309 1 -29 9 -33 54 -26 6 1 9 549 3 596 0 6
-27 12 -58 13 -74 3 -169 18 -302 48 -36 8 -102 21 -146 30 -76 15 -99 18
-190 30 -42 6 -362 13 -367 9z"/>
<path d="M2704 7571 c-2 -3 -21 -5 -42 -5 -33 -1 -37 -4 -40 -28 -3 -24 0 -28
23 -28 42 0 91 -28 119 -68 30 -44 57 -105 64 -147 9 -55 7 -3329 -2 -3350 -5
-11 -8 -24 -7 -28 3 -17 -53 -117 -83 -145 -33 -31 -92 -56 -108 -46 -5 4 -8
-8 -6 -26 l3 -33 385 1 c212 1 397 1 411 1 22 1 26 5 25 28 -1 21 -7 27 -31
30 -16 2 -35 9 -42 15 -7 6 -13 7 -13 2 0 -5 -8 3 -17 16 -9 14 -23 29 -30 33
-7 4 -13 13 -13 19 0 6 -6 19 -13 27 -12 14 -34 80 -40 121 -2 8 -5 20 -8 25
-3 6 -5 384 -5 840 l1 830 946 3 945 2 -1 -847 -1 -848 -25 -66 c-41 -106 -97
-166 -163 -171 -17 -2 -26 -9 -29 -25 -2 -13 0 -26 5 -29 7 -5 702 -8 808 -5
18 1 22 56 5 57 -39 2 -78 20 -101 47 -34 40 -78 137 -91 198 -16 75 -9 3344
7 3344 1 0 4 11 6 25 3 13 9 29 14 34 6 6 10 17 10 26 0 8 17 34 38 58 29 34
46 44 82 50 40 7 45 10 45 34 1 21 -4 27 -20 27 -45 0 -255 0 -330 1 -89 1
-84 1 -160 1 -30 0 -84 -1 -120 -1 -195 1 -192 1 -198 -26 -5 -27 -2 -29 53
-38 69 -12 124 -88 157 -218 3 -13 7 -337 7 -720 l2 -698 -25 -1 c-34 -1
-1786 -1 -1831 0 l-35 1 1 698 c1 618 3 704 18 757 32 114 79 172 146 181 43
6 47 8 46 33 -1 28 -12 31 -101 30 -22 0 -46 0 -52 0 -77 1 -231 1 -283 0 -36
0 -69 1 -75 2 -5 1 -13 1 -16 1 -21 -2 -113 -2 -157 0 -30 2 -56 1 -58 -1z"/>
</g>
</svg>
