<svg xmlns="http://www.w3.org/2000/svg" version="1.1" xmlns:xlink="http://www.w3.org/1999/xlink" xmlns:svgjs="http://svgjs.dev/svgjs" width="1000" height="1125" viewBox="0 0 1000 1125"><g transform="matrix(1,0,0,1,1.7053025658242404e-13,0)"><svg viewBox="0 0 320 360" data-background-color="#97978d" preserveAspectRatio="xMidYMid meet" height="1125" width="1000" xmlns="http://www.w3.org/2000/svg" xmlns:xlink="http://www.w3.org/1999/xlink"><g id="tight-bounds" transform="matrix(1,0,0,1,0,0)"><svg viewBox="0 0 320 360" height="360" width="320"><g><svg></svg></g><g><svg viewBox="0 0 320 360" height="360" width="320"><g><path xmlns="http://www.w3.org/2000/svg" d="M20.961 227.22l3.726 4.658-1.863-6.056c-0.466-2.795-3.726 0.466-1.863 1.398M25.153 224.425c1.397 2.329 2.795 4.658 2.795 6.987 0 3.261 2.795 4.658 5.123 5.589-3.261-3.726-5.124-13.974-7.918-12.576M204.017 26.929c7.918 0 15.371-0.932 23.756 0.931 20.495 5.124 37.729 15.371 49.374 29.811l32.606 52.169c1.397 13.042 4.192 27.482 3.726 43.319 3.261 0 2.795-4.658 6.521-5.59-3.726 9.316-5.59 20.961-6.521 34.469-2.329-7.453 0-18.632 0.466-24.687-3.261 5.124-5.124 1.397-5.124-0.932 0.466-3.726-1.397-3.261-2.795-4.658-5.124-4.658-8.384-9.782-12.11-17.7 2.329-6.055 2.795-14.905-4.658-19.563-2.329-1.397-5.124-3.726-6.521-7.453-1.863-5.124-5.124-11.179-4.193-19.097 0.466-2.329-6.987 5.124-11.179 1.863-18.166-12.576-36.332-27.016-58.224-39.127-11.645 0-20.029-4.192-24.221-9.316-3.726-4.658-0.932-10.713 4.658-11.179 3.261 0 6.987-0.932 9.782 0.932 0.466-1.863 2.329-4.192 4.657-4.192M157.904 16.215l0.932 0.466c4.658 0.932 6.987 7.453 12.11 5.124 0 3.261 0.466 6.521-0.466 8.85-1.397 3.726-5.59 3.726-8.85 3.726-31.208-1.863-49.374 11.179-68.471 22.358-5.124 3.261-10.713 5.59-14.906 9.782-20.029 18.632-41.921 35.866-47.045 70.335l-4.192 38.195c-0.466 4.192-5.124 8.384-4.192 13.508l3.26 22.824c-3.261-3.261-5.124 0.932-4.192 2.795 0.466 1.397 2.329 6.055 5.124 1.863 3.726 6.987 7.453 20.495 12.576 26.55 15.837 18.632 36.332 35.4 53.101 52.169 4.192-0.932 7.453-0.932 8.384-3.727 1.397 2.795-1.397 5.59-3.726 6.056 7.453 4.658 15.837 8.85 27.016 9.781 14.44 0.932 27.948 3.261 40.524 6.522 6.521-1.863 13.042-2.795 20.029-3.261 2.329 0 3.726-3.726 6.521-4.658l0.466-4.658c2.795 4.192 2.329-1.397 0.466-4.192 3.261 2.795 4.192 5.124 5.589 6.987 0-1.397 3.726-6.521 3.727-0.466l0.931-6.055c1.397-0.932 1.863 5.124 3.261 0.931 1.397-4.192 4.192-0.932 6.987-2.329-0.932 1.863-0.466 5.59 2.794 3.261l3.727-3.261c2.329 5.59 6.055 3.261 7.918 2.329 20.495-13.042 40.99-28.413 60.553-43.784l-0.466 6.055 2.329-7.453c2.329 2.329 4.192 0.466 5.124-0.931 2.795-4.658 6.521-9.316 12.577-13.508-7.453 20.029-16.303 35.866-27.482 48.908l-4.658 5.59c0 3.261-0.932 7.453-4.658 7.918-1.863 0.466-5.59-0.932-8.384 1.863-1.397 1.863 3.261 5.59-0.466 2.795-3.261-2.329-6.521 0-10.248 0.932-2.795 0.932 1.863 3.726 2.795 5.589 0.932 1.863 1.863 3.726 1.398 6.056l-5.124-5.59c-6.055 3.261-9.782 9.316-14.906 13.974-2.329 1.863-1.397 5.124-1.397 7.918-3.261 0-6.987-0.932-8.85 0.932-1.397 1.863-0.932 4.658-0.932 7.453-4.658-0.466-5.124-7.453-9.315-6.056-4.192 0.932-8.85 1.397-12.577 3.727 2.795 5.59-4.658 2.329-3.726 3.26-6.987-4.192-13.042-7.453-20.495-4.658-15.837-5.124-35.4-2.795-49.84-0.931 0-2.329 0.466-4.658-0.466-5.124-0.932 2.329-3.726 1.397-3.26 1.397-8.85-6.055-17.7-9.782-27.016-14.905-8.384 0.932-16.303-3.261-18.632-5.59-6.521-6.055-13.974-2.795-20.029-4.192-13.042-3.261-17.7-16.769-19.098-26.084-0.932-4.658-4.658-6.521-6.055-6.056-6.055-19.563-15.371-37.263-22.824-55.429-1.863-4.658-1.397-9.316-1.397-14.44 2.329 0.932 4.658 0.466 4.192-2.794-2.329-15.371-7.918-27.016-13.974-38.195 3.261-15.837 3.726-34.469 11.179-48.443 6.521-12.576 18.632-19.098 27.016-29.811 2.795-3.726 2.795-8.85 5.59-12.11 9.316-9.316 18.632-19.098 28.879-27.482 4.658-3.726 10.247 0 17.234-1.397 2.329-8.384 11.645-15.837 20.495-13.508 3.726 0.932 11.179-8.85 13.508-9.782 3.726-1.397 1.863 3.726 1.863 6.987 8.85-6.987 20.961-10.713 32.14-14.906" fill="#ffffff" fill-rule="nonzero" stroke="none" stroke-width="1" stroke-linecap="butt" stroke-linejoin="miter" stroke-miterlimit="10" stroke-dasharray="" stroke-dashoffset="0" font-family="none" font-weight="none" font-size="none" text-anchor="none" style="mix-blend-mode: normal" data-fill-palette-color="tertiary"></path></g><g transform="matrix(1,0,0,1,64,115.87389162561577)"><svg viewBox="0 0 192 128.25221674876846" height="128.25221674876846" width="192"><g><svg viewBox="0 0 192 128.25221674876846" height="128.25221674876846" width="192"><g><svg viewBox="0 0 192 128.25221674876846" height="128.25221674876846" width="192"><g><svg viewBox="0 0 192 128.25221674876846" height="128.25221674876846" width="192"><g><svg viewBox="0 0 192 128.25221674876846" height="128.25221674876846" width="192" id="textblock"><g><svg viewBox="0 0 192 128.25221674876846" height="128.25221674876846" width="192"><g transform="matrix(1,0,0,1,0,0)"><svg width="192" viewBox="2.8499999046325684 -33.5 50.75 33.900001525878906" height="128.25221674876846" data-palette-color="#ffffff"><path d="M22.2 0L22.2-0.5 22.45-0.5Q22.8-0.5 23.1-0.78 23.4-1.05 23.63-1.48 23.85-1.9 23.95-2.38 24.05-2.85 24.05-3.25L24.05-3.25 24.05-16.85 8.05-16.85 8.05-3.25Q8.05-2.85 8.15-2.38 8.25-1.9 8.45-1.5 8.65-1.1 8.93-0.8 9.2-0.5 9.6-0.5L9.6-0.5 9.85-0.5 9.85 0 2.85 0 2.85-0.5 3.1-0.5Q3.45-0.5 3.75-0.78 4.05-1.05 4.28-1.48 4.5-1.9 4.6-2.38 4.7-2.85 4.7-3.25L4.7-3.25 4.7-29.9Q4.7-30.25 4.6-30.7 4.5-31.15 4.3-31.55 4.1-31.95 3.8-32.23 3.5-32.5 3.1-32.5L3.1-32.5 2.85-32.5 2.85-33 9.85-33 9.85-32.5 9.6-32.5Q9.2-32.5 8.9-32.23 8.6-31.95 8.43-31.55 8.25-31.15 8.15-30.7 8.05-30.25 8.05-29.9L8.05-29.9 8.05-18.6 24.05-18.6 24.05-29.9Q24.05-30.25 23.95-30.7 23.85-31.15 23.65-31.55 23.45-31.95 23.15-32.23 22.85-32.5 22.45-32.5L22.45-32.5 22.2-32.5 22.2-33 29.2-33 29.2-32.5 28.95-32.5Q28.55-32.5 28.25-32.23 27.95-31.95 27.78-31.55 27.6-31.15 27.5-30.7 27.4-30.25 27.4-29.9L27.4-29.9 27.4-3.25Q27.4-2.85 27.53-2.38 27.65-1.9 27.85-1.5 28.05-1.1 28.33-0.8 28.6-0.5 28.95-0.5L28.95-0.5 29.2-0.5 29.2 0 22.2 0ZM53.6-8.85L53.6-8.85Q53.6-6.35 52.6-4.58 51.6-2.8 50.02-1.7 48.45-0.6 46.47-0.1 44.5 0.4 42.55 0.4L42.55 0.4Q40.55 0.4 39.1 0 37.65-0.4 36.45-0.75L36.45-0.75Q35.65-1 35-1.18 34.35-1.35 33.7-1.35L33.7-1.35 33.7-7.05 34.2-7.05Q34.2-5.15 35.17-4.03 36.15-2.9 37.45-2.3 38.75-1.7 40.05-1.53 41.35-1.35 41.95-1.35L41.95-1.35Q44.1-1.35 45.65-1.98 47.2-2.6 48.2-3.63 49.2-4.65 49.67-5.9 50.15-7.15 50.15-8.45L50.15-8.45Q50.15-10.1 49.45-11.23 48.75-12.35 47.62-13.2 46.5-14.05 45.05-14.65 43.6-15.25 42.1-15.85L42.1-15.85Q40.4-16.5 38.75-17.2 37.1-17.9 35.8-18.93 34.5-19.95 33.7-21.38 32.9-22.8 32.9-24.9L32.9-24.9Q32.9-27.1 33.75-28.73 34.6-30.35 36.02-31.4 37.45-32.45 39.27-32.98 41.1-33.5 43-33.5L43-33.5Q44.3-33.5 45.45-33.33 46.6-33.15 47.65-32.9L47.65-32.9Q48.5-32.7 49.3-32.58 50.1-32.45 50.85-32.45L50.85-32.45 50.85-27.3 50.35-27.3Q50.25-29.9 48.3-30.83 46.35-31.75 42.9-31.75L42.9-31.75Q40.9-31.75 39.62-31.08 38.35-30.4 37.6-29.43 36.85-28.45 36.57-27.33 36.3-26.2 36.3-25.35L36.3-25.35Q36.3-23.95 36.92-22.95 37.55-21.95 38.6-21.2 39.65-20.45 41.02-19.85 42.4-19.25 43.9-18.7L43.9-18.7Q45.6-18.05 47.35-17.3 49.1-16.55 50.47-15.45 51.85-14.35 52.72-12.75 53.6-11.15 53.6-8.85Z" opacity="1" transform="matrix(1,0,0,1,0,0)" fill="#ffffff" class="undefined-text-0" data-fill-palette-color="primary" id="text-0"></path></svg></g></svg></g></svg></g></svg></g><g></g></svg></g></svg></g></svg></g></svg></g><defs></defs></svg><rect width="320" height="360" fill="none" stroke="none" visibility="hidden"></rect></g></svg></g></svg>